<svg xmlns="http://www.w3.org/2000/svg" width="44" height="44" viewBox="0 0 44 44">
  <g id="Group_185" data-name="Group 185" transform="translate(-0.017 0.104)">
    <circle id="Ellipse_163" data-name="Ellipse 163" cx="22" cy="22" r="22" transform="translate(0.017 -0.104)" fill="#c35241"/>
    <g id="Icon_doc_solid" transform="translate(11.017 8.896)">
      <g id="Icon_doc_solid-2" data-name="Icon_doc_solid" transform="translate(0 0)">
        <path id="Shape" d="M17.874,26H4.125A4.021,4.021,0,0,1,0,22.1V7.8A4.022,4.022,0,0,1,4.125,3.9H6.875a4.044,4.044,0,0,1,.808-2.384A4.038,4.038,0,0,1,11,0a4.033,4.033,0,0,1,3.315,1.515A4.025,4.025,0,0,1,15.125,3.9h2.75A4.023,4.023,0,0,1,22,7.8V22.1A4.022,4.022,0,0,1,17.874,26ZM5.5,18.2a1.3,1.3,0,1,0,0,2.6H9.625a1.3,1.3,0,1,0,0-2.6Zm0-5.2a1.3,1.3,0,1,0,0,2.6h11a1.3,1.3,0,1,0,0-2.6Zm0-5.2a1.3,1.3,0,1,0,0,2.6h11a1.3,1.3,0,1,0,0-2.6ZM11,2.6a1.211,1.211,0,0,0-1.084.435,1.542,1.542,0,0,0-.291.865h2.75a1.541,1.541,0,0,0-.291-.865A1.211,1.211,0,0,0,11,2.6Z" transform="translate(0 0)" fill="#fff"/>
      </g>
    </g>
  </g>
</svg>
