<svg xmlns="http://www.w3.org/2000/svg" width="29.671" height="29.671" viewBox="0 0 29.671 29.671">
  <g id="Group_15498" data-name="Group 15498" transform="translate(-1869 -634)">
    <path id="Path_15226" data-name="Path 15226" d="M14.835,0A14.835,14.835,0,1,1,0,14.835,14.835,14.835,0,0,1,14.835,0Z" transform="translate(1869 634)" fill="#c35241"/>
    <path id="ic_import_contacts_24px" d="M18.231,4.931A10.17,10.17,0,0,0,15.216,4.5a8.013,8.013,0,0,0-4.739,1.292A8.013,8.013,0,0,0,5.739,4.5,8.013,8.013,0,0,0,1,5.792V18.414a.463.463,0,0,0,.431.431c.086,0,.129-.043.215-.043a10.516,10.516,0,0,1,4.092-.948,8.013,8.013,0,0,1,4.739,1.292,10.378,10.378,0,0,1,4.739-1.292,8.769,8.769,0,0,1,4.092.9.388.388,0,0,0,.215.043.463.463,0,0,0,.431-.431V5.792A5.876,5.876,0,0,0,18.231,4.931Zm0,11.631a10.012,10.012,0,0,0-3.015-.431,10.378,10.378,0,0,0-4.739,1.292V7.515a10.378,10.378,0,0,1,4.739-1.292,10.012,10.012,0,0,1,3.015.431Z" transform="translate(1873.358 636.27)" fill="#fff"/>
  </g>
</svg>
