<svg xmlns="http://www.w3.org/2000/svg" width="20" height="20" viewBox="0 0 20 20">
  <g id="Group_186" data-name="Group 186" transform="translate(-1869 -634)">
    <path id="Path_15226" data-name="Path 15226" d="M10,0A10,10,0,1,1,0,10,10,10,0,0,1,10,0Z" transform="translate(1869 634)" fill="#fff"/>
    <path id="ic_import_contacts_24px" d="M12.615,4.79a6.855,6.855,0,0,0-2.033-.29,5.4,5.4,0,0,0-3.194.871A5.4,5.4,0,0,0,4.194,4.5,5.4,5.4,0,0,0,1,5.371v8.508a.312.312,0,0,0,.29.29c.058,0,.087-.029.145-.029A7.088,7.088,0,0,1,4.194,13.5a5.4,5.4,0,0,1,3.194.871,7,7,0,0,1,3.194-.871,5.911,5.911,0,0,1,2.759.61.262.262,0,0,0,.145.029.312.312,0,0,0,.29-.29V5.371A3.961,3.961,0,0,0,12.615,4.79Zm0,7.84a6.748,6.748,0,0,0-2.033-.29,7,7,0,0,0-3.194.871V6.533a7,7,0,0,1,3.194-.871,6.748,6.748,0,0,1,2.033.29Z" transform="translate(1871.612 634.064)" fill="#48597f"/>
  </g>
</svg>
