<svg xmlns="http://www.w3.org/2000/svg" width="30" height="30" viewBox="0 0 30 30">
  <g id="Group_15479" data-name="Group 15479" transform="translate(-1869 -634)">
    <circle id="Ellipse_162" data-name="Ellipse 162" cx="15" cy="15" r="15" transform="translate(1869 634)" fill="#fff"/>
    <path id="ic_import_contacts_24px" d="M18.422,4.936A10.283,10.283,0,0,0,15.373,4.5a8.1,8.1,0,0,0-4.791,1.307A8.1,8.1,0,0,0,5.791,4.5,8.1,8.1,0,0,0,1,5.807V18.569A.468.468,0,0,0,1.436,19c.087,0,.131-.044.218-.044A10.632,10.632,0,0,1,5.791,18a8.1,8.1,0,0,1,4.791,1.307A10.493,10.493,0,0,1,15.373,18a8.867,8.867,0,0,1,4.138.915.393.393,0,0,0,.218.044.468.468,0,0,0,.436-.436V5.807A5.942,5.942,0,0,0,18.422,4.936Zm0,11.76a10.123,10.123,0,0,0-3.049-.436,10.493,10.493,0,0,0-4.791,1.307V7.549a10.493,10.493,0,0,1,4.791-1.307,10.123,10.123,0,0,1,3.049.436Z" transform="translate(1873.418 636.345)" fill="#c35241"/>
  </g>
</svg>
