<svg xmlns="http://www.w3.org/2000/svg" width="20" height="20" viewBox="0 0 20 20">
  <g id="Group_185" data-name="Group 185" transform="translate(-1869 -695)">
    <circle id="Ellipse_163" data-name="Ellipse 163" cx="10" cy="10" r="10" transform="translate(1869 695)" fill="#48597f"/>
    <g id="Icon_doc_solid" transform="translate(1874 699)">
      <g id="Icon_doc_solid-2" data-name="Icon_doc_solid" transform="translate(-5 -6)">
        <path id="Shape" d="M8.125,12H1.875A1.841,1.841,0,0,1,0,10.2V3.6A1.841,1.841,0,0,1,1.875,1.8h1.25A1.886,1.886,0,0,1,3.493.7,1.825,1.825,0,0,1,5,0,1.822,1.822,0,0,1,6.507.7a1.878,1.878,0,0,1,.368,1.1h1.25A1.841,1.841,0,0,1,10,3.6v6.6A1.841,1.841,0,0,1,8.125,12ZM2.5,8.4a.6.6,0,1,0,0,1.2H4.375a.6.6,0,1,0,0-1.2ZM2.5,6a.6.6,0,1,0,0,1.2h5A.6.6,0,1,0,7.5,6Zm0-2.4a.6.6,0,1,0,0,1.2h5a.6.6,0,1,0,0-1.2ZM5,1.2a.547.547,0,0,0-.493.2.719.719,0,0,0-.132.4h1.25a.719.719,0,0,0-.132-.4A.547.547,0,0,0,5,1.2Z" transform="translate(5 6)" fill="#fff"/>
      </g>
    </g>
  </g>
</svg>
