<svg xmlns="http://www.w3.org/2000/svg" width="20" height="20" viewBox="0 0 20 20">
  <g id="Group_184" data-name="Group 184" transform="translate(-1869 -757)">
    <circle id="Ellipse_164" data-name="Ellipse 164" cx="10" cy="10" r="10" transform="translate(1869 757)" fill="#fff"/>
    <path id="ic_library_books_24px" d="M3.126,4.252H2v7.881a1.129,1.129,0,0,0,1.126,1.126h7.881V12.133H3.126ZM12.133,2H5.378A1.129,1.129,0,0,0,4.252,3.126V9.881a1.129,1.129,0,0,0,1.126,1.126h6.755a1.129,1.129,0,0,0,1.126-1.126V3.126A1.129,1.129,0,0,0,12.133,2ZM11.57,7.066H5.941V5.941H11.57ZM9.318,9.318H5.941V8.192H9.318Zm2.252-4.5H5.941V3.689H11.57Z" transform="translate(1871.371 759.371)" fill="#48597f"/>
  </g>
</svg>
