<svg xmlns="http://www.w3.org/2000/svg" width="44" height="45" viewBox="0 0 44 45">
  <g id="Group_15547" data-name="Group 15547" transform="translate(-0.092 0.453)">
    <ellipse id="Ellipse_164" data-name="Ellipse 164" cx="22" cy="22.5" rx="22" ry="22.5" transform="translate(0.092 -0.453)" fill="#c35241"/>
    <path id="ic_library_books_24px" d="M4.488,6.976H2V24.392A2.5,2.5,0,0,0,4.488,26.88H21.9V24.392H4.488ZM24.392,2H9.464A2.5,2.5,0,0,0,6.976,4.488V19.416A2.5,2.5,0,0,0,9.464,21.9H24.392a2.5,2.5,0,0,0,2.488-2.488V4.488A2.5,2.5,0,0,0,24.392,2ZM23.148,13.2H10.708V10.708h12.44Zm-4.976,4.976H10.708V15.684h7.464ZM23.148,8.22H10.708V5.732h12.44Z" transform="translate(7.591 7.788)" fill="#fff"/>
  </g>
</svg>
