<svg xmlns="http://www.w3.org/2000/svg" width="25.322" height="19.567" viewBox="0 0 25.322 19.567">
  <path id="ic_import_contacts_24px" d="M24.02,5.075A13.587,13.587,0,0,0,19.991,4.5a10.7,10.7,0,0,0-6.33,1.726A10.7,10.7,0,0,0,7.33,4.5,10.7,10.7,0,0,0,1,6.226V23.088a.619.619,0,0,0,.575.575c.115,0,.173-.058.288-.058A14.048,14.048,0,0,1,7.33,22.34a10.7,10.7,0,0,1,6.33,1.726,13.864,13.864,0,0,1,6.33-1.726,11.715,11.715,0,0,1,5.467,1.209.519.519,0,0,0,.288.058.619.619,0,0,0,.575-.575V6.226A7.85,7.85,0,0,0,24.02,5.075Zm0,15.538a13.375,13.375,0,0,0-4.028-.575,13.864,13.864,0,0,0-6.33,1.726V8.528A13.864,13.864,0,0,1,19.991,6.8a13.375,13.375,0,0,1,4.028.575Z" transform="translate(-1 -4.5)" fill="#fff"/>
</svg>
