<svg id="Icon_doc_solid" xmlns="http://www.w3.org/2000/svg" width="14" height="18" viewBox="0 0 14 18">
  <g id="Icon_doc_solid-2" data-name="Icon_doc_solid">
    <path id="Shape" d="M11.375,18H2.625A2.666,2.666,0,0,1,0,15.3V5.4A2.666,2.666,0,0,1,2.625,2.7H4.375A2.973,2.973,0,0,1,4.89,1.049,2.492,2.492,0,0,1,7,0,2.489,2.489,0,0,1,9.11,1.049,2.959,2.959,0,0,1,9.625,2.7h1.75A2.667,2.667,0,0,1,14,5.4v9.9A2.666,2.666,0,0,1,11.375,18ZM3.5,12.6a.9.9,0,0,0,0,1.8H6.125a.9.9,0,0,0,0-1.8ZM3.5,9a.9.9,0,0,0,0,1.8h7a.9.9,0,0,0,0-1.8Zm0-3.6a.9.9,0,0,0,0,1.8h7a.9.9,0,0,0,0-1.8ZM7,1.8a.747.747,0,0,0-.69.3,1.132,1.132,0,0,0-.185.6h1.75a1.131,1.131,0,0,0-.185-.6A.747.747,0,0,0,7,1.8Z" fill="#fff"/>
  </g>
</svg>
