<svg xmlns="http://www.w3.org/2000/svg" width="48.069" height="48.069" viewBox="0 0 48.069 48.069">
  <g id="Group_15498" data-name="Group 15498" transform="translate(-1869 -634)">
    <path id="Path_15226" data-name="Path 15226" d="M24.035,0A24.035,24.035,0,1,1,0,24.035,24.035,24.035,0,0,1,24.035,0Z" transform="translate(1869 634)" fill="#c35241"/>
    <path id="ic_import_contacts_24px" d="M28.916,5.2a16.477,16.477,0,0,0-4.885-.7c-2.722,0-5.653.558-7.677,2.094C14.33,5.058,11.4,4.5,8.677,4.5S3.024,5.058,1,6.594V27.042a.751.751,0,0,0,.7.7c.14,0,.209-.07.349-.07a17.036,17.036,0,0,1,6.63-1.535c2.722,0,5.653.558,7.677,2.094a16.813,16.813,0,0,1,7.677-2.094,14.207,14.207,0,0,1,6.63,1.466.629.629,0,0,0,.349.07.751.751,0,0,0,.7-.7V6.594A9.52,9.52,0,0,0,28.916,5.2Zm0,18.843a16.22,16.22,0,0,0-4.885-.7,16.813,16.813,0,0,0-7.677,2.094V9.385a16.813,16.813,0,0,1,7.677-2.094,16.22,16.22,0,0,1,4.885.7Z" transform="translate(1876.681 640.469)" fill="#fff"/>
  </g>
</svg>
