<svg xmlns="http://www.w3.org/2000/svg" width="28.286" height="18" viewBox="0 0 28.286 18">
  <path id="ic_group_24px" d="M20.286,12.714a3.857,3.857,0,1,0-3.857-3.857A3.841,3.841,0,0,0,20.286,12.714ZM10,12.714A3.857,3.857,0,1,0,6.143,8.857,3.841,3.841,0,0,0,10,12.714Zm0,2.571c-3,0-9,1.5-9,4.5V23H19V19.786C19,16.79,13,15.286,10,15.286Zm10.286,0c-.373,0-.8.026-1.247.064a5.426,5.426,0,0,1,2.533,4.436V23h7.714V19.786C29.286,16.79,23.281,15.286,20.286,15.286Z" transform="translate(-1 -5)" fill="#fff"/>
</svg>
